<svg data-v-2cb57da0="" version="1.0" xmlns="http://www.w3.org/2000/svg" xmlns:xlink="http://www.w3.org/1999/xlink" width="100%" height="100%" viewBox="0 0 340.000000 250.000000" preserveAspectRatio="xMidYMid meet" color-interpolation-filters="sRGB" style="margin: auto;"><rect data-v-2cb57da0="" x="0" y="0" width="100%" height="100%" fill="#fff" fill-opacity="1" class="background"></rect> <rect data-v-2cb57da0="" x="0" y="0" width="100%" height="100%" fill="url(#watermark)" fill-opacity="1" class="watermarklayer"></rect> <g data-v-2cb57da0="" fill="#f19533" class="icon-text-wrapper icon-svg-group iconsvg" transform="translate(47.66999816894531,96.17374801635742)"><g class="iconsvg-imagesvg" transform="translate(0,0.5507717132568359)"><g><rect fill="#f19533" fill-opacity="0" stroke-width="2" x="0" y="0" width="60" height="56.550957124949335" class="image-rect"></rect> <svg x="0" y="0" width="60" height="56.550957124949335" filtersec="colorsb9201418587" class="image-svg-svg primary" style="overflow: visible;"><svg xmlns="http://www.w3.org/2000/svg" viewBox="8.695907592773438 72.0003662109375 1486.26904296875 1400.8302001953125"><g fill-rule="evenodd" clip-rule="evenodd" fill="#F19533"><path d="M218.033 481.536c254.394-351.747 640.812-506.734 862.895-346.114 206.795 149.563 198.306 520.072-9.192 854.359L855.313 837.538h-.02c100.949-194.465 95.961-397.26-22.854-483.188-138.681-100.293-379.933-3.531-538.771 216.084-158.835 219.635-175.186 479.051-36.524 579.325 74.535 53.924 178.726 50.878 283.813 2.438l157.827 215.956c-195.623 118.511-399.813 142.104-539.253 41.279-222.088-160.649-195.879-576.161 58.502-927.896z"></path><path d="M331.614 617.603l1163.351 841.389-561.765 5.555z"></path></g></svg></svg> <!----></g></g> <g transform="translate(67,0)"><g data-gra="path-name" fill-rule="" class="tp-name iconsvg-namesvg" transform="translate(0,0)"><g transform="scale(1)"><g><path d="M3.19-10.48L2.92-10.62Q2.83-10.84 2.5-11.7 2.16-12.55 1.8-13.54 1.44-14.54 1.17-15.34 0.9-16.16 0.9-16.29L0.9-16.29Q0.9-16.61 0.9-16.65 0.9-16.7 1.17-16.83L1.17-16.83Q1.57-17.01 2.14-17.14 2.7-17.28 3.31-17.37 3.92-17.46 4.52-17.5 5.13-17.55 5.58-17.64L5.58-17.64Q5.98-17.95 5.98-18.4L5.98-18.4 5.98-37.66Q5.98-38.12 6.43-38.12L6.43-38.12Q6.75-38.12 7.67-38.07 8.59-38.02 9.61-37.91 10.62-37.8 11.41-37.6 12.2-37.39 12.2-37.08L12.2-37.08Q12.2-36.81 11.79-36.45 11.38-36.09 11.38-35.59L11.38-35.59Q11.38-33.84 11.54-32.11 11.7-30.38 11.7-28.62L11.7-28.62Q11.97-28.26 12.29-28.64 12.6-29.02 12.89-29.61 13.18-30.2 13.46-30.76 13.72-31.32 13.86-31.32L13.86-31.32Q14.13-31.32 14.54-30.6 14.94-29.88 15.46-29 15.97-28.13 16.54-27.4 17.1-26.68 17.68-26.68L17.68-26.68Q18.13-26.68 18.77-27.36 19.39-28.04 20.07-29.09 20.75-30.15 21.42-31.45 22.09-32.76 22.68-33.95 23.27-35.14 23.74-36.13 24.21-37.13 24.43-37.57L24.43-37.57Q24.52-37.66 24.73-38.05 24.93-38.43 25.02-38.43L25.02-38.43Q25.38-38.43 26.37-38.32 27.36-38.2 28.39-37.98 29.43-37.75 30.24-37.44 31.05-37.13 31.05-36.72L31.05-36.72Q31.05-36.63 30.8-36.43 30.55-36.23 30.26-36 29.97-35.77 29.68-35.59 29.38-35.41 29.29-35.32L29.29-35.32Q28.48-34.7 27.83-33.91 27.18-33.12 26.57-32.29 25.96-31.45 25.33-30.64 24.7-29.83 23.98-29.11L23.98-29.11Q22.27-27.45 20.16-26.12 18.04-24.79 15.88-23.76L15.88-23.76Q15.12-23.4 15.07-23.56 15.03-23.71 15.28-24.07 15.52-24.43 15.91-24.84 16.29-25.24 16.43-25.38L16.43-25.38Q16.52-25.65 16.49-26.03 16.47-26.41 16.06-26.41L16.06-26.41 11.83-26.41Q11.38-26.41 11.38-25.96L11.38-25.96 11.38-19.71Q11.38-19.21 11.97-19.26 12.55-19.3 13.28-19.48 13.99-19.66 14.58-19.78 15.16-19.89 15.16-19.48L15.16-19.48Q15.16-19.21 14.6-18.72 14.04-18.22 13.37-17.73 12.69-17.23 12.13-16.83 11.56-16.43 11.56-16.25L11.56-16.25 11.56-1.21Q11.56-0.04 11 0.97 10.44 1.98 9.54 2.72 8.64 3.46 7.51 3.87 6.39 4.27 5.31 4.27L5.31 4.27Q5.08 4.27 4.97 4.07 4.86 3.87 4.81 3.6 4.77 3.33 4.75 3.06 4.72 2.79 4.72 2.61L4.72 2.61Q4.63 1.62 4.27 0.65 3.92-0.32 3.28-1.08L3.28-1.08Q3.19-1.21 3.08-1.33 2.97-1.44 2.97-1.62L2.97-1.62Q2.97-1.93 3.4-1.93 3.82-1.93 4.34-1.91 4.86-1.89 5.29-1.93 5.71-1.98 5.71-2.38L5.71-2.38 5.71-11.47Q5.71-11.56 5.65-11.72 5.58-11.88 5.44-11.88L5.44-11.88Q5.17-11.88 4.91-11.7 4.63-11.52 4.34-11.27 4.05-11.03 3.76-10.8 3.46-10.57 3.19-10.48L3.19-10.48ZM43.06-29.43L43.2-29.25 43.11-29.02Q41.94-27.95 41.17-26.82 40.41-25.7 39.96-24.12L39.96-24.12 39.78-23.98Q39.24-23.98 38.36-24.61 37.48-25.24 36.49-26.21 35.5-27.18 34.52-28.37 33.52-29.56 32.71-30.71 31.9-31.86 31.39-32.83 30.87-33.8 30.87-34.34L30.87-34.34Q30.87-34.6 31.05-34.6L31.05-34.6Q31.14-34.6 31.21-34.56 31.27-34.52 31.36-34.47L31.36-34.47Q34.16-32.76 37.01-31.5 39.87-30.24 43.06-29.43L43.06-29.43ZM33.75-26.41L23.94-26.41Q23.71-26.41 23.71-26.64L23.71-26.64Q23.71-26.91 24.28-26.93 24.84-26.95 25.58-26.89 26.32-26.82 27.02-26.8 27.72-26.77 27.99-26.95L27.99-26.95Q28.17-27.09 28.48-27.43 28.8-27.77 29.14-28.17 29.47-28.57 29.77-28.96 30.06-29.34 30.2-29.56L30.2-29.56 30.46-29.7Q30.51-29.74 31.05-29.34 31.59-28.93 32.22-28.39 32.85-27.86 33.37-27.34 33.88-26.82 33.88-26.55L33.88-26.55 33.75-26.41ZM1.8-26.86L1.98-27 4.95-27 5.08-26.86 4.95-26.68 1.98-26.68 1.8-26.86ZM37.17-10.62L37.17-10.62Q37.39-10.3 38.09-9.79 38.79-9.27 39.53-8.75 40.27-8.23 40.86-7.76 41.45-7.29 41.45-7.06L41.45-7.06Q41.45-6.93 41.27-6.77 41.09-6.61 40.88-6.43 40.68-6.25 40.52-6.08 40.37-5.89 40.37-5.71L40.37-5.71 40.37 2.11Q40.37 2.43 39.71 2.7 39.06 2.97 38.2 3.17 37.35 3.38 36.54 3.49 35.73 3.6 35.46 3.6L35.46 3.6Q35.23 3.6 35.19 3.51 35.14 3.42 35.05 3.24L35.05 3.24Q34.88 2.75 34.83 1.8 34.78 0.85 34.76-0.27 34.74-1.4 34.76-2.61 34.78-3.82 34.78-4.81 34.78-5.8 34.78-6.5 34.78-7.2 34.7-7.33L34.7-7.33Q34.56-7.51 34.29-7.51L34.29-7.51 27.13-7.51Q26.68-7.51 26.68-7.06L26.68-7.06 26.68-0.14Q26.68 0.27 27.58 0.36 28.48 0.45 29.63 0.43 30.78 0.4 31.86 0.32 32.94 0.22 33.34 0.27L33.34 0.27Q33.44 0.27 33.66 0.32 33.88 0.36 33.88 0.54L33.88 0.54Q33.88 0.77 33.66 0.77L33.66 0.77 27.31 0.77Q27.18 0.77 26.95 1.06 26.73 1.35 26.48 1.75 26.23 2.16 25.99 2.52 25.74 2.88 25.52 3.01L25.52 3.01Q25.15 3.24 24.66 3.38 24.16 3.51 23.63 3.6 23.09 3.69 22.57 3.73 22.05 3.78 21.64 3.78L21.64 3.78Q21.2 3.78 21.2 3.33L21.2 3.33Q21.2 1.35 21.4-0.61 21.6-2.56 21.6-4.54L21.6-4.54Q21.6-5.13 21.15-5.13L21.15-5.13Q20.93-5.13 20.45-4.59 19.98-4.05 19.35-3.22 18.72-2.38 18-1.42 17.28-0.45 16.56 0.38 15.84 1.21 15.19 1.75 14.54 2.29 14.04 2.29L14.04 2.29Q13.77 2.29 13.77 2.02L13.77 2.02Q13.77 1.89 13.86 1.71L13.86 1.71Q15.16-1.21 16.02-4 16.88-6.79 17.37-9.61 17.86-12.42 18.07-15.34 18.27-18.27 18.27-21.46L18.27-21.46Q18.27-21.69 18.22-22.12 18.18-22.54 18.2-22.97 18.22-23.4 18.38-23.71 18.54-24.03 18.9-24.03L18.9-24.03Q19.71-24.03 20.45-23.78 21.2-23.54 21.91-23.27 22.63-22.99 23.38-22.75 24.12-22.5 24.88-22.5L24.88-22.5 32.98-22.5Q33.25-22.5 33.7-22.88 34.16-23.27 34.6-23.74 35.05-24.21 35.46-24.61 35.87-25.02 36.05-25.02L36.05-25.02Q36.27-25.02 36.99-24.52 37.71-24.03 38.45-23.42 39.2-22.81 39.78-22.27 40.37-21.73 40.37-21.64L40.37-21.64Q40.27-21.29 39.87-20.95 39.46-20.61 39.46-20.38L39.46-20.38 39.46-12.55Q39.46-12.24 39.1-12.13 38.74-12.01 38.32-11.86 37.89-11.7 37.53-11.45 37.17-11.21 37.17-10.62ZM33.7-8.1L34.02-8.23 35.87-10.08 36-10.39Q36-10.84 35.77-10.91 35.55-10.98 35.23-10.96 34.92-10.93 34.6-10.91 34.29-10.89 34.11-11.21L34.11-11.21Q34.02-11.34 33.98-11.59 33.93-11.83 33.86-12.11 33.8-12.38 33.68-12.55 33.57-12.73 33.34-12.73L33.34-12.73 24.07-12.73Q23.98-12.73 23.89-12.82L23.89-12.82Q23.98-12.91 24.14-13.05 24.3-13.18 24.43-13.18L24.43-13.18 33.44-13.18Q33.88-13.18 33.88-13.63L33.88-13.63 33.88-21.46Q33.88-21.91 33.44-21.91L33.44-21.91 23.94-21.91Q23.58-21.91 23.49-21.46L23.49-21.46Q23.36-20.65 23.31-19.82 23.27-18.99 23.18-18.18L23.18-18.18Q22.95-16.16 22.72-14.17 22.5-12.2 22.5-10.17L22.5-10.17Q22.5-9.72 23.15-9.34 23.8-8.96 24.66-8.69 25.52-8.41 26.37-8.26 27.22-8.1 27.58-8.1L27.58-8.1 33.7-8.1ZM24.3-17.55L24.43-17.68 32.85-17.68 32.98-17.55 32.85-17.41 24.43-17.41 24.3-17.55ZM46.22-2.16L46.48-2.38Q48.02-2.48 49.5-2.63 50.98-2.79 52.52-3.01L52.52-3.01 52.65-3.15 52.78-3.46 52.78-23.98Q52.78-24.3 52.67-24.37 52.56-24.43 52.4-24.43 52.24-24.43 52.04-24.41 51.84-24.39 51.7-24.52L51.7-24.52Q51.84-24.79 52.6-24.88 53.37-24.97 54.31-25 55.26-25.02 56.14-25.04 57.02-25.06 57.38-25.24L57.38-25.24Q57.78-25.43 58.19-25.9 58.59-26.37 58.93-26.93 59.27-27.49 59.49-28.1 59.72-28.71 59.72-29.11L59.72-29.11Q59.72-29.43 59.42-30.15 59.13-30.87 58.73-31.68 58.32-32.49 57.91-33.14 57.51-33.8 57.24-33.98L57.24-33.98Q57.15-34.02 57.13-34.04 57.11-34.06 57.02-34.11L57.02-34.11Q56.56-34.11 55.94-33.34 55.3-32.58 54.54-31.41 53.77-30.24 52.85-28.84 51.93-27.45 50.89-26.14 49.86-24.84 48.71-23.76 47.56-22.68 46.35-22.23L46.35-22.23 46.22-22.36Q46.22-22.54 46.6-23.36 46.98-24.16 47.45-25.13 47.92-26.1 48.4-26.95 48.87-27.81 49.01-28.17L49.01-28.17Q49.73-29.65 50.29-31.23 50.85-32.8 51.21-34.38L51.21-34.38Q51.39-35.14 51.5-35.93 51.62-36.72 51.84-37.48L51.84-37.48Q51.93-37.8 52.2-37.8L52.2-37.8Q52.47-37.8 53.48-37.51 54.49-37.21 55.6-36.83 56.7-36.45 57.62-36.09 58.55-35.73 58.63-35.55L58.63-35.55Q58.77-35.32 58.75-35.17 58.73-35.01 58.7-34.88 58.68-34.74 58.73-34.63 58.77-34.52 59.04-34.38L59.04-34.38Q59.8-34.02 60.5-33.7 61.2-33.39 61.88-32.85L61.88-32.85Q62.1-32.67 62.62-32.15 63.13-31.63 63.7-31.09 64.26-30.55 64.75-30.15 65.25-29.74 65.47-29.74L65.47-29.74Q66.06-29.74 66.64-29.95 67.23-30.15 67.81-29.92L67.81-29.92 67.95-29.79Q67.95-29.7 67.77-29.61L67.77-29.61Q67.36-29.47 66.31-29.23 65.25-28.98 64.17-28.66 63.09-28.35 62.26-27.95 61.42-27.54 61.42-27L61.42-27Q61.42-26.82 61.65-26.55 61.88-26.28 62.17-25.99 62.46-25.7 62.75-25.43 63.05-25.15 63.18-25.02L63.18-25.02 63.31-24.7Q63.27-24.43 62.62-24.37 61.97-24.3 61.13-24.32 60.3-24.34 59.53-24.39 58.77-24.43 58.5-24.43L58.5-24.43Q58.23-24.43 58.07-24.14 57.91-23.85 57.91-23.63L57.91-23.63 58.19-18.9Q58.19-18.59 58.63-18.59L58.63-18.59Q59.22-18.59 59.58-18.95 59.94-19.3 60.19-19.8 60.44-20.29 60.66-20.81 60.88-21.33 61.25-21.69L61.25-21.69 61.47-21.78Q61.74-21.73 62.3-21.29 62.86-20.84 63.45-20.23 64.03-19.62 64.51-19.04 64.98-18.45 65.11-18.18L65.11-18.18 64.98-17.86 64.94-17.82 64.62-17.68 58.68-17.68 58.37-17.55 58.05-17.23 57.91-16.92 57.91-4.18Q57.91-3.96 58.12-3.92 58.32-3.87 58.5-3.87L58.5-3.87Q59.98-3.87 61.42-4.34 62.86-4.81 64.35-4.81L64.35-4.81Q64.44-4.81 64.62-4.79 64.8-4.77 64.8-4.59L64.8-4.59Q64.8-4.46 64.42-4.23 64.03-4 63.9-3.92L63.9-3.92 50.72 2.7Q50.35 2.88 50.04 3.24 49.73 3.6 49.37 3.6L49.37 3.6Q49.23 3.6 49.14 3.38L49.14 3.38Q48.65 2.38 48.1 1.44 47.56 0.49 47.07-0.45L47.07-0.45Q46.84-0.85 46.6-1.28 46.35-1.71 46.22-2.16L46.22-2.16ZM65.43-20.38L65.3-20.47Q65.38-20.56 65.52-20.61 65.66-20.65 65.75-20.75L65.75-20.75Q66.11-20.93 66.44-21.06 66.78-21.2 67.14-21.38L67.14-21.38Q67.95-21.73 68.76-22.14 69.57-22.54 70.38-22.9L70.38-22.9Q70.47-22.95 70.78-23.09 71.1-23.22 71.44-23.4 71.78-23.58 72.05-23.74 72.31-23.89 72.31-23.98L72.31-23.98Q72.31-24.07 71.8-24.88 71.28-25.7 70.67-26.73 70.06-27.77 69.55-28.75 69.03-29.74 69.03-30.2L69.03-30.2Q69.03-30.38 69.05-30.53 69.08-30.69 69.08-30.87L69.08-30.87Q69.08-31.72 68.87-32.51 68.67-33.3 68.42-34.11 68.17-34.92 67.97-35.71 67.77-36.49 67.77-37.35L67.77-37.35Q67.77-37.8 68.22-37.8L68.22-37.8Q69.39-37.8 70.63-37.64 71.86-37.48 73.03-37.26L73.03-37.26Q73.13-37.21 73.28-37.19 73.44-37.17 73.44-36.99L73.44-36.99Q73.44-36.67 73.17-36.45 72.9-36.23 72.9-35.91L72.9-35.91Q72.9-35.41 72.97-34.78 73.03-34.16 73.15-33.5 73.26-32.85 73.42-32.24 73.58-31.63 73.8-31.18L73.8-31.18Q73.94-30.87 74.25-30.87L74.25-30.87Q74.56-30.87 75.67-30.94 76.77-31 78.01-31.12 79.25-31.23 80.26-31.34 81.27-31.45 81.41-31.54L81.41-31.54Q81.67-31.77 81.94-32.31 82.22-32.85 82.51-33.41 82.8-33.98 83.12-34.4 83.43-34.83 83.79-34.83L83.79-34.83Q83.92-34.83 84.53-34.47 85.14-34.11 85.81-33.64 86.49-33.16 87.1-32.71 87.7-32.27 87.88-32.13L87.88-32.13Q87.97-31.9 87.8-31.77 87.61-31.63 87.39-31.59L87.39-31.59Q87.03-31.45 86.06-31.39 85.09-31.32 84.1-31.25 83.12-31.18 82.35-31.03 81.59-30.87 81.59-30.6L81.59-30.6Q81.59-30.38 82.06-30.06 82.53-29.74 83.14-29.41 83.75-29.07 84.28-28.71 84.82-28.35 85-27.99L85-27.99Q84.78-27.81 84.35-27.7 83.92-27.58 83.66-27.45L83.66-27.45Q83.34-27.31 82.69-26.91 82.03-26.5 81.36-26.03 80.69-25.56 80.17-25.09 79.65-24.61 79.6-24.25L79.6-24.25Q79.6-23.94 80.12-23.67 80.64-23.4 81.34-23.2 82.03-22.99 82.69-22.88 83.34-22.77 83.61-22.77L83.61-22.77Q84.1-22.77 84.49-23.15 84.87-23.54 85.16-24.03 85.45-24.52 85.72-24.97 86-25.43 86.27-25.61L86.27-25.61Q86.35-25.61 86.4-25.22 86.44-24.84 86.44-24.32 86.44-23.8 86.42-23.24 86.4-22.68 86.4-22.32L86.4-22.32Q86.4-22.18 86.58-21.96 86.76-21.73 87.01-21.4 87.25-21.06 87.44-20.65 87.61-20.25 87.61-19.75L87.61-19.75Q87.61-19.17 87.34-18.77 87.07-18.36 86.63-18.13 86.17-17.91 85.66-17.8 85.14-17.68 84.64-17.68L84.64-17.68Q83.03-17.68 81.63-18.34 80.23-18.99 78.91-19.8 77.58-20.61 76.32-21.26 75.06-21.91 73.8-21.91L73.8-21.91Q72.72-21.91 71.69-21.67 70.65-21.42 69.61-21.15 68.58-20.88 67.55-20.63 66.51-20.38 65.43-20.38L65.43-20.38ZM79.11-32.4L79.11-32.4Q78.53-32.4 78.07-32.74 77.63-33.07 77.27-33.55 76.91-34.02 76.63-34.56 76.36-35.1 76.19-35.55L76.19-35.55Q76.09-35.73 75.94-36.09 75.78-36.45 75.78-36.59L75.78-36.59Q75.78-36.77 75.94-36.85 76.09-36.95 76.32-36.97 76.55-36.99 76.77-36.97 77-36.95 77.13-36.95L77.13-36.95Q79.2-36.95 80.17-36.23 81.13-35.5 81.27-34.67 81.41-33.84 80.8-33.12 80.19-32.4 79.11-32.4ZM74.38-29.88L74.38-29.88Q74.3-29.65 74.5-29.16 74.7-28.66 75.02-28.19 75.33-27.72 75.69-27.36 76.05-27 76.32-27L76.32-27Q76.59-27 77.17-27.43 77.76-27.86 78.34-28.42 78.93-28.98 79.38-29.54 79.83-30.11 79.83-30.38L79.83-30.38Q79.83-30.51 79.67-30.58 79.52-30.64 79.42-30.64L79.42-30.64Q79.16-30.64 78.41-30.62 77.67-30.6 76.84-30.53 76-30.46 75.33-30.35 74.66-30.24 74.52-30.11L74.52-30.11Q74.47-30.06 74.38-29.88ZM72.18-2.61L72.31-2.88Q72.05-3.73 71.55-4.48 71.06-5.22 70.61-5.98L70.61-5.98Q69.03-8.87 68.11-12.04 67.19-15.21 67.19-18.5L67.19-18.5Q67.19-18.95 67.63-18.95L67.63-18.95Q67.95-18.95 68.87-18.92 69.8-18.9 70.76-18.81 71.73-18.72 72.5-18.56 73.26-18.4 73.26-18.13L73.26-18.13Q73.26-17.86 72.92-17.59 72.58-17.32 72.58-17.01L72.58-17.01Q72.58-16.56 72.72-15.5 72.86-14.45 73.03-13.3 73.22-12.15 73.44-11.16 73.66-10.17 73.84-9.81L73.84-9.81Q73.98-9.58 74.3-9.02 74.61-8.46 74.97-7.88 75.33-7.29 75.67-6.79 76-6.3 76.19-6.21L76.19-6.21Q76.63-5.94 77.2-6.5 77.76-7.06 78.37-7.83 78.97-8.59 79.63-9.27 80.28-9.95 80.87-9.95L80.87-9.95Q81.41-9.95 82.03-9.7 82.66-9.45 83.27-9.09 83.88-8.73 84.44-8.32 85-7.92 85.41-7.56L85.41-7.56 85.45-7.33Q85.05-6.97 84.1-6.48 83.16-5.98 82.22-5.42 81.27-4.86 80.53-4.27 79.78-3.69 79.78-3.15L79.78-3.15Q79.78-2.97 80.32-2.68 80.87-2.38 81.59-2.11 82.31-1.84 82.96-1.67 83.61-1.48 83.84-1.48L83.84-1.48Q84.28-1.48 84.71-1.87 85.14-2.25 85.48-2.68 85.81-3.1 86.09-3.49 86.35-3.87 86.49-3.87L86.49-3.87Q86.67-3.87 86.69-3.49 86.72-3.1 86.72-2.63 86.72-2.16 86.72-1.69 86.72-1.21 86.81-1.08L86.81-1.08Q86.89-0.94 87.03-0.83 87.16-0.72 87.25-0.58L87.25-0.58Q87.61-0.09 87.93 0.45 88.25 0.99 88.25 1.62L88.25 1.62Q88.25 2.21 87.93 2.63 87.61 3.06 87.14 3.35 86.67 3.65 86.11 3.78 85.55 3.92 85.05 3.92L85.05 3.92Q83.56 3.92 82.13 3.24 80.69 2.56 79.36 1.78 78.03 0.99 76.84 0.32 75.64-0.36 74.56-0.36L74.56-0.36Q74.07-0.36 73.24-0.07 72.41 0.22 71.91 0.45L71.91 0.45Q71.01 0.81 69.91 1.24 68.81 1.67 67.63 2.02 66.47 2.38 65.34 2.65 64.22 2.92 63.27 2.92L63.27 2.92Q63.18 2.92 62.98 2.9 62.77 2.88 62.77 2.75L62.77 2.75Q62.77 2.52 63.09 2.38 63.41 2.25 63.54 2.16L63.54 2.16Q64.48 1.71 65.68 1.15 66.87 0.58 68.04-0.02 69.21-0.63 70.31-1.28 71.41-1.93 72.18-2.61L72.18-2.61ZM78.39-13.18L78.39-13.18Q78.25-13.23 77.81-13.28 77.35-13.32 77.27-13.41L77.27-13.41Q77.13-13.46 77.04-13.72L77.04-13.72Q76.63-14.71 76.23-15.71 75.83-16.7 75.24-17.59L75.24-17.59Q75.06-17.86 75.06-18L75.06-18Q75.06-18.18 75.26-18.25 75.47-18.31 75.6-18.31L75.6-18.31Q76.28-18.31 77.2-18.2 78.12-18.09 78.97-17.75 79.83-17.41 80.41-16.85 81-16.29 81-15.39L81-15.39Q81-14.49 80.44-13.99 79.88-13.5 79.11-13.28L79.11-13.28Q78.93-13.23 78.75-13.18 78.57-13.14 78.39-13.18ZM47.12-17.86L47.3-18Q47.52-18 48.26-18 49.01-18 49.81-18 50.63-18 51.28-18 51.93-18 52.02-17.95L52.02-17.95Q51.98-17.82 51.77-17.75 51.57-17.68 51.48-17.68L51.48-17.68 47.3-17.68 47.12-17.86ZM88.47-12.6L88.47-12.42Q88.29-12.15 87.59-11.99 86.89-11.83 86.06-11.77 85.23-11.7 84.44-11.7 83.66-11.7 83.34-11.7L83.34-11.7Q83.16-11.7 82.91-11.68 82.66-11.65 82.44-11.68 82.22-11.7 82.06-11.81 81.9-11.92 81.9-12.2L81.9-12.2Q81.9-12.29 82.17-12.8 82.44-13.32 82.8-13.88 83.16-14.45 83.5-14.94 83.84-15.43 83.92-15.52L83.92-15.52Q84.02-15.62 84.15-15.62L84.15-15.62Q84.33-15.62 84.98-15.23 85.63-14.85 86.35-14.33 87.07-13.81 87.68-13.3 88.29-12.78 88.47-12.6L88.47-12.6ZM59.4-8.19L59.4-8.19Q59.4-9.9 59.65-11.63 59.89-13.37 60.25-15.03L60.25-15.03Q60.3-15.21 60.34-15.34 60.39-15.48 60.62-15.48L60.62-15.48Q60.84-15.48 61.58-15.25 62.33-15.03 63.13-14.71 63.95-14.4 64.58-14.11 65.2-13.81 65.2-13.63L65.2-13.63Q65.2-13.37 64.44-12.4 63.67-11.43 62.69-10.37 61.7-9.31 60.82-8.48 59.94-7.65 59.72-7.65L59.72-7.65Q59.49-7.65 59.45-7.83 59.4-8.01 59.4-8.19ZM49.77-5.98L49.77-5.98Q49.05-5.98 48.47-6.48L48.47-6.48Q48.42-6.52 48.33-7.09 48.24-7.65 48.15-8.46 48.06-9.27 47.97-10.24 47.88-11.21 47.81-12.11 47.74-13 47.7-13.66 47.66-14.31 47.66-14.54L47.66-14.54Q47.66-14.98 48.1-14.98L48.1-14.98Q48.73-14.98 49.45-14.24 50.17-13.5 50.78-12.49 51.39-11.47 51.8-10.44 52.2-9.4 52.2-8.87L52.2-8.87Q52.2-7.79 51.57-6.88 50.94-5.98 49.77-5.98ZM80.55-11.38L80.32-11.47 80.19-11.65Q80.28-11.74 80.55-11.74 80.82-11.74 80.91-11.65L80.91-11.65 80.78-11.47 80.55-11.38ZM78.7-11.34L78.21-11.12Q77.63-11.12 76.88-11.07 76.14-11.03 75.64-11.25L75.64-11.25Q75.64-11.29 75.85-11.34 76.05-11.38 76.28-11.41 76.5-11.43 76.7-11.43 76.91-11.43 77-11.43L77-11.43Q77.09-11.43 77.35-11.43 77.63-11.43 77.89-11.43 78.16-11.43 78.41-11.41 78.66-11.38 78.7-11.34L78.7-11.34ZM67.14-10.04L67.14-10.04Q67.14-9.9 66.89-9.79 66.64-9.67 66.31-9.63 65.97-9.58 65.68-9.56 65.38-9.54 65.25-9.54L65.25-9.54Q65.16-9.54 64.87-9.54 64.58-9.54 64.28-9.56 63.99-9.58 63.77-9.63 63.54-9.67 63.54-9.81L63.54-9.81Q63.54-10.04 64.08-10.15 64.62-10.26 65.27-10.28 65.92-10.3 66.49-10.24 67.05-10.17 67.14-10.04ZM132.03-23.22L132.03-23.22Q132.03-22.99 131.81-22.86 131.58-22.72 131.31-22.59 131.04-22.45 130.84-22.32 130.63-22.18 130.63-22L130.63-22 130.63-0.32Q130.63 0.72 129.94 1.57 129.24 2.43 128.2 3.01 127.17 3.6 126.02 3.92 124.88 4.23 124.02 4.23L124.02 4.23Q123.8 4.23 123.75 4.16 123.7 4.09 123.62 3.92L123.62 3.92Q123.53 3.55 123.48 3.13 123.44 2.7 123.34 2.34L123.34 2.34Q123.16 1.48 122.89 0.74 122.63 0 122.15-0.56 121.68-1.13 121-1.46 120.33-1.8 119.34-1.8L119.34-1.8Q118.98-1.8 118.48-1.73 117.99-1.67 117.45-1.6 116.91-1.53 116.44-1.48 115.97-1.44 115.69-1.53L115.69-1.53Q115.42-1.75 115.36-2.16 115.29-2.56 115.25-2.95 115.2-3.33 115.11-3.62 115.02-3.92 114.75-3.92L114.75-3.92 109.48-3.92Q109.26-3.92 109.17-3.67 109.08-3.42 109.03-3.06 108.99-2.7 108.92-2.34 108.86-1.98 108.59-1.8L108.59-1.8Q107.82-1.17 106.65-0.99 105.48-0.81 104.53-0.81L104.53-0.81Q104.08-0.81 104.08-1.26L104.08-1.26 104.08-12.91Q104.08-13.14 104.24-13.48 104.4-13.81 104.67-13.81L104.67-13.81Q105.66-13.81 106.61-13.57 107.55-13.32 108.5-13 109.44-12.69 110.38-12.44 111.33-12.2 112.32-12.2L112.32-12.2Q112.95-12.2 113.38-12.2 113.81-12.2 114.19-12.26 114.57-12.33 114.93-12.55 115.29-12.78 115.78-13.28L115.78-13.28Q116.14-13.59 116.44-13.93 116.73-14.26 117.18-14.4L117.18-14.4Q117.45-14.35 118.17-13.99 118.89-13.63 119.63-13.16 120.38-12.69 120.89-12.2 121.41-11.7 121.36-11.43L121.36-11.43Q121.28-11.16 121.12-10.98 120.96-10.8 120.73-10.62L120.73-10.62 120.6-10.3 120.6-2.38Q120.6-2.11 121.25-1.91 121.91-1.71 122.69-1.71 123.48-1.71 124.13-1.93 124.78-2.16 124.78-2.7L124.78-2.7 124.78-15.66Q124.78-16.11 124.34-16.11L124.34-16.11Q122.81-16.11 121.36-15.68 119.92-15.25 118.39-15.25L118.39-15.25Q117.77-15.25 116.91-15.3 116.06-15.34 115.31-15.57 114.57-15.79 114.05-16.29 113.53-16.79 113.53-17.68L113.53-17.68 113.53-22.95Q113.53-23.4 113.09-23.4L113.09-23.4Q112.68-23.4 111.96-23.45 111.24-23.49 110.88-23.27L110.88-23.27Q110.79-23.18 110.56-22.75 110.34-22.32 110.11-21.78 109.89-21.24 109.66-20.75 109.44-20.25 109.35-20.07L109.35-20.07Q108.86-19.17 108.07-18.27 107.28-17.37 106.34-16.61 105.39-15.84 104.36-15.25 103.32-14.67 102.33-14.35L102.33-14.35Q102.15-14.31 101.97-14.31 101.79-14.31 101.79-14.58L101.79-14.58Q101.79-14.89 102.17-15.55 102.56-16.2 103.07-16.92 103.59-17.64 104.06-18.34 104.53-19.04 104.72-19.48L104.72-19.48Q105.44-21.15 105.61-22.9L105.61-22.9 105.48-23.22 105.44-23.27 105.12-23.4 100.03-23.4Q99.58-23.4 99.58-22.95L99.58-22.95 99.58 2.11Q99.58 2.65 98.95 3.01 98.33 3.38 97.52 3.58 96.7 3.78 95.87 3.85 95.04 3.92 94.64 3.92L94.64 3.92Q94.19 3.92 94.19 3.46L94.19 3.46Q94.19-4.05 94.05-11.43 93.92-18.81 93.92-26.32L93.92-26.32Q93.92-26.41 93.98-26.57 94.05-26.73 94.19-26.73L94.19-26.73Q94.72-26.73 95.56-26.35 96.39-25.96 97.27-25.52 98.14-25.06 98.95-24.68 99.77-24.3 100.22-24.3L100.22-24.3Q101.03-24.3 101.88-24.25 102.73-24.21 103.55-24.43L103.55-24.43Q104-24.52 104-24.88L104-24.88Q104-25.33 103.91-26.41 103.81-27.49 103.61-28.6 103.41-29.7 103-30.53 102.6-31.36 102.02-31.36L102.02-31.36 92.07-31.36Q91.62-31.36 91.62-31.81L91.62-31.81Q91.62-31.95 91.8-31.95L91.8-31.95 108.77-31.95Q109.31-31.95 109.31-32.87 109.31-33.8 109.22-34.9 109.13-36 109.13-36.92 109.13-37.84 109.66-37.84L109.66-37.84Q111.19-37.84 112.7-37.73 114.21-37.62 115.69-37.3L115.69-37.3Q115.78-37.26 115.94-37.24 116.1-37.21 116.1-37.03L116.1-37.03Q116.1-36.9 115.97-36.79 115.83-36.67 115.65-36.56 115.47-36.45 115.33-36.31 115.2-36.18 115.2-36L115.2-36 115.2-32.04Q115.2-31.86 115.04-31.7 114.88-31.54 114.75-31.45L114.75-31.45Q114.61-31.36 113.53-31.34 112.45-31.32 111.15-31.32 109.84-31.32 108.65-31.34 107.46-31.36 107.1-31.36L107.1-31.36Q106.88-31.36 106.83-31 106.78-30.64 106.78-30.51L106.78-30.51Q106.78-30.2 107.17-29.95 107.55-29.7 108-29.32 108.45-28.93 108.83-28.3 109.22-27.68 109.22-26.55L109.22-26.55Q109.22-26.01 109.08-25.49 108.94-24.97 108.94-24.43L108.94-24.43Q108.94-23.98 109.39-23.98L109.39-23.98 114.61-23.98Q115.16-23.98 115.49-24.86 115.83-25.74 116.06-26.84 116.28-27.95 116.37-29.02 116.46-30.11 116.46-30.51L116.46-30.51Q116.46-30.6 116.39-30.82 116.33-31.05 116.26-31.3 116.19-31.54 116.21-31.75 116.23-31.95 116.37-31.95L116.37-31.95 123.39-31.95Q123.53-31.95 124.09-32.53 124.65-33.12 125.28-33.86 125.91-34.6 126.45-35.3 126.99-36 127.13-36.23L127.13-36.23Q127.17-36.23 127.24-36.27 127.31-36.31 127.35-36.31L127.35-36.31Q127.44-36.36 127.57-36.27 127.71-36.18 127.8-36.09L127.8-36.09Q128.07-35.87 128.84-35.28 129.6-34.7 130.43-34.02 131.26-33.34 131.94-32.76 132.62-32.17 132.7-31.99L132.7-31.99Q132.8-31.72 132.75-31.54 132.7-31.36 132.34-31.36L132.34-31.36 120.24-31.36Q120.02-31.36 119.92-31.21 119.83-31.05 119.75-30.87L119.75-30.87Q119.61-30.51 120.13-30.29 120.64-30.06 121.3-29.9 121.95-29.74 122.51-29.59 123.07-29.43 123.07-29.25L123.07-29.25Q123.07-29.11 122.42-28.6 121.77-28.08 120.91-27.49 120.06-26.91 119.3-26.39 118.53-25.88 118.31-25.74L118.31-25.74Q118.22-25.7 117.97-25.52 117.72-25.33 117.45-25.11 117.18-24.88 117-24.68 116.82-24.48 116.86-24.39L116.86-24.39Q116.95-24.25 117.09-24.25 117.22-24.25 117.36-24.25L117.36-24.25Q117.77-24.25 117.97-24.01 118.17-23.76 118.26-23.38 118.35-22.99 118.35-22.61 118.35-22.23 118.35-21.96L118.35-21.96Q118.35-21.42 118.33-20.59 118.31-19.75 118.66-19.3L118.66-19.3Q118.8-19.26 119.25-19.24 119.7-19.21 120.19-19.19 120.69-19.17 121.09-19.17 121.5-19.17 121.59-19.26L121.59-19.26Q121.68-19.3 121.86-19.55 122.04-19.8 122.24-20.07 122.44-20.34 122.6-20.54 122.76-20.75 122.85-20.75L122.85-20.75Q123.03-20.75 123.12-20.5 123.21-20.25 123.34-19.96 123.48-19.66 123.7-19.42 123.93-19.17 124.38-19.17L124.38-19.17Q124.78-19.17 124.78-19.48L124.78-19.48 124.78-23.09Q124.78-23.54 124.34-23.54L124.34-23.54 119.47-23.54Q119.38-23.54 119.3-23.56 119.2-23.58 119.2-23.67L119.2-23.67Q119.2-24.16 119.7-24.16L119.7-24.16 124.02-24.16Q124.25-24.16 124.67-24.61 125.1-25.06 125.55-25.58 126-26.1 126.43-26.55 126.85-27 127.08-27L127.08-27Q127.22-27 127.96-26.48 128.7-25.96 129.56-25.29 130.41-24.61 131.15-24.01 131.89-23.4 132.03-23.22ZM114.7-11.7L109.66-11.7Q109.22-11.7 109.22-11.25L109.22-11.25 109.22-4.95Q109.22-4.5 109.66-4.5L109.66-4.5 115.06-4.5Q115.52-4.5 115.52-4.95L115.52-4.95 115.52-10.93Q115.52-11.16 115.22-11.43 114.93-11.7 114.7-11.7L114.7-11.7ZM172.35-23.13L172.39-23.13Q172.75-22.99 173.66-22.75 174.56-22.5 175.48-22.21 176.4-21.91 177.14-21.55 177.88-21.2 177.88-20.84L177.88-20.84Q177.8-20.65 177.75-20.61L177.75-20.61Q176.72-19.48 176.13-18.59 175.55-17.68 175.09-16.79 174.64-15.88 174.26-14.87 173.88-13.86 173.34-12.55L173.34-12.55Q173.25-12.42 173.07-11.97 172.89-11.52 172.69-11.05 172.49-10.57 172.33-10.17 172.17-9.76 172.17-9.67L172.17-9.67Q172.17-9.31 172.51-8.44 172.84-7.56 173.32-6.66 173.79-5.76 174.33-5.08 174.87-4.41 175.28-4.41L175.28-4.41Q175.68-4.41 176.04-4.86 176.4-5.31 176.74-5.89 177.07-6.48 177.37-7.06 177.66-7.65 178.02-7.88L178.02-7.88Q178.2-7.74 178.2-7.06 178.2-6.39 178.13-5.58 178.06-4.77 177.97-4.03 177.88-3.28 177.88-3.01L177.88-3.01Q177.88-1.67 178.2-0.54L178.2-0.54Q178.25-0.32 178.34 0.22 178.43 0.77 178.49 1.35 178.56 1.93 178.56 2.45 178.56 2.97 178.43 3.1L178.43 3.1Q178.06 3.46 177.7 3.55 177.34 3.65 176.85 3.65L176.85 3.65Q175.45 3.65 174.35 3.08 173.25 2.52 172.37 1.64 171.5 0.77 170.82-0.36 170.14-1.48 169.6-2.61L169.6-2.61Q169.56-2.75 169.38-3.1 169.2-3.46 169-3.85 168.8-4.23 168.59-4.52 168.39-4.81 168.3-4.81L168.3-4.81Q168.16-4.81 167.72-4.46 167.26-4.09 166.61-3.55 165.96-3.01 165.19-2.36 164.43-1.71 163.73-1.1 163.03-0.49 162.5-0.04 161.95 0.4 161.69 0.58L161.69 0.58Q160.92 1.08 160.16 1.48 159.39 1.89 158.63 2.29L158.63 2.29Q158.53 2.34 158.13 2.5 157.72 2.65 157.72 2.38L157.72 2.38Q157.72 2.25 158.4 1.51 159.07 0.77 160.09-0.29 161.1-1.35 162.27-2.59 163.44-3.82 164.45-4.97 165.47-6.12 166.14-7 166.81-7.88 166.81-8.23L166.81-8.23Q166.81-8.59 166.72-9.52 166.63-10.44 166.45-11.59 166.28-12.73 166.05-13.99 165.82-15.25 165.53-16.27 165.24-17.28 164.93-17.95 164.61-18.63 164.29-18.63L164.29-18.63Q164.03-18.63 163.75-18.22 163.49-17.82 163.49-17.59L163.49-17.59Q163.49-16.52 163.51-15.01 163.53-13.5 163.44-11.86 163.35-10.21 163.06-8.62 162.76-7.02 162.13-5.76 161.5-4.5 160.43-3.71 159.34-2.92 157.72-2.92L157.72-2.92Q157.45-2.92 157.37-2.99 157.28-3.06 157.14-3.28L157.14-3.28Q157-3.46 156.74-4.05 156.47-4.63 156.19-5.31 155.93-5.98 155.7-6.57 155.47-7.15 155.47-7.33L155.47-7.33Q155.47-7.47 155.59-7.49 155.7-7.51 155.79-7.56L155.79-7.56Q156.51-7.79 157-8.1 157.5-8.41 157.91-9.09L157.91-9.09Q158.53-10.13 158.72-11.61 158.9-13.09 158.9-14.26L158.9-14.26Q158.9-14.67 158.9-15.37 158.9-16.06 158.9-16.81 158.9-17.55 158.85-18.2 158.81-18.86 158.72-19.21L158.72-19.21Q158.63-19.48 158.4-19.48L158.4-19.48Q158.13-19.48 157.63-19.53 157.14-19.57 156.62-19.55 156.1-19.53 155.75-19.37 155.38-19.21 155.38-18.77L155.38-18.77Q155.38-18.36 155.41-17.93 155.43-17.5 155.43-17.1L155.43-17.1Q155.43-11.52 153.5-7.11 151.56-2.7 147.6 1.21L147.6 1.21Q147.42 1.4 147.08 1.69 146.75 1.98 146.36 2.25 145.98 2.52 145.62 2.72 145.26 2.92 145.03 2.92L145.03 2.92Q144.76 2.92 144.76 2.65L144.76 2.65Q144.76 2.56 145.03 1.89 145.31 1.21 145.73 0.2 146.16-0.81 146.68-2 147.19-3.19 147.67-4.32 148.14-5.44 148.48-6.32 148.81-7.2 148.95-7.56L148.95-7.56Q149-7.79 149.22-8.41 149.44-9.04 149.69-9.76 149.94-10.48 150.12-11.05 150.3-11.61 150.3-11.7L150.3-11.7 150.3-24.16Q150.3-24.61 149.85-24.61L149.85-24.61 146.25-24.61Q145.8-24.61 145.8-24.16L145.8-24.16 145.8-12.51Q145.8-12.11 146.25-12.11L146.25-12.11Q146.88-12.11 147.67-12.51 148.46-12.91 149.22-12.96L149.22-12.96 149.4-12.78Q149.35-12.55 148.97-12.11 148.59-11.65 148.07-11.16 147.56-10.66 147.08-10.21 146.61-9.76 146.38-9.58L146.38-9.58Q145.17-8.46 143.84-7.54 142.51-6.61 141.25-5.58L141.25-5.58Q140.63-5.04 140.02-4.41 139.41-3.78 138.78-3.28L138.78-3.28 138.56-3.42Q138.42-3.65 138.01-4.57 137.61-5.49 137.14-6.52 136.66-7.56 136.31-8.39 135.94-9.22 135.94-9.27L135.94-9.27Q135.99-9.63 136.55-9.81 137.12-9.99 137.84-10.1 138.56-10.21 139.19-10.33 139.81-10.44 140-10.66L140-10.66Q140.04-10.71 140.09-11.56 140.13-12.42 140.18-13.72 140.22-15.03 140.26-16.56 140.31-18.09 140.35-19.48 140.4-20.88 140.42-21.94 140.44-22.99 140.44-23.31L140.44-23.31Q140.44-23.8 140.42-24.07 140.4-24.34 140.13-24.79L140.13-24.79Q140.18-25.02 140.29-25.24 140.4-25.47 140.4-25.7L140.4-25.7 140.4-36.77Q140.4-37.21 140.85-37.21L140.85-37.21Q141.75-37.21 142.67-37.06 143.59-36.9 144.5-36.85L144.5-36.85Q144.63-36.85 145.03-36.83 145.44-36.81 145.84-36.74 146.25-36.67 146.59-36.59 146.93-36.49 146.93-36.36L146.93-36.36Q146.93-36.27 146.75-36.16 146.56-36.05 146.36-35.91 146.16-35.77 146-35.59 145.84-35.41 145.84-35.23L145.84-35.23 145.84-27.4 145.98-27.13 146.29-27Q146.56-27.04 146.77-27.27 146.97-27.49 147.1-27.77 147.24-28.04 147.38-28.33 147.51-28.62 147.65-28.84L147.65-28.84 147.91-28.98Q148.14-28.93 148.37-28.66 148.59-28.39 148.79-28.08 149-27.77 149.2-27.52 149.4-27.27 149.63-27.27L149.63-27.27Q149.76-27.27 149.92-27.31 150.07-27.36 150.16-27.45L150.16-27.45Q150.25-27.58 150.3-27.97 150.34-28.35 150.34-28.8 150.34-29.25 150.34-29.68 150.34-30.11 150.34-30.33L150.34-30.33Q150.34-30.51 150.39-30.51L150.39-30.51Q150.48-30.51 150.53-30.46L150.53-30.46Q152.24-29.74 153.76-29.29 155.29-28.84 156.8-28.57 158.31-28.3 159.91-28.17 161.5-28.04 163.31-27.9L163.31-27.9Q163.44-27.9 163.53-27.86L163.53-27.86Q163.22-27.63 162.13-27.56 161.06-27.49 159.82-27.49 158.58-27.49 157.41-27.54 156.24-27.58 155.7-27.58L155.7-27.58Q155.38-27.58 155.38-27.27 155.38-26.95 155.38-26.73L155.38-26.73Q155.38-25.15 155.5-23.54 155.61-21.91 155.7-20.34L155.7-20.34Q155.84-20.07 156.15-20.07L156.15-20.07Q157.19-20.07 157.93-20.47 158.67-20.88 159.21-21.38 159.75-21.87 160.11-22.27 160.47-22.68 160.78-22.68L160.78-22.68Q160.92-22.68 161.46-22.21 162-21.73 162.65-21.15 163.31-20.56 163.87-20.02 164.43-19.48 164.61-19.3L164.61-19.3 164.84-19.21 164.97-19.35Q164.97-22.72 164.68-26.03 164.38-29.34 164.38-32.71L164.38-32.71 164.38-36.95Q164.38-37.39 164.93-37.39L164.93-37.39Q165.1-37.39 166.07-37.26 167.04-37.13 168.14-36.95 169.25-36.77 170.14-36.63 171.05-36.49 171.13-36.45L171.13-36.45Q171.36-36.31 171.61-36.13 171.85-35.95 172.13-35.87L172.13-35.87Q172.8-35.59 173.7-35.53 174.6-35.46 175.41-35.28 176.22-35.1 176.78-34.6 177.34-34.11 177.34-32.98L177.34-32.98Q177.34-32.53 177.1-32.17 176.85-31.81 176.56-31.5 176.26-31.18 176.02-30.87 175.77-30.55 175.77-30.15L175.77-30.15Q175.77-29.92 176.09-29.65 176.4-29.38 176.81-29.11 177.21-28.84 177.62-28.62 178.02-28.39 178.2-28.21L178.2-28.21 178.2-27.9 177.62-27.58 169.78-27.58Q169.47-27.58 169.45-27.11 169.43-26.64 169.43-26.41L169.43-26.41Q169.43-25.92 169.45-24.52 169.47-23.13 169.58-21.6 169.69-20.07 169.94-18.9 170.19-17.73 170.64-17.73L170.64-17.73Q170.95-17.91 171.22-18.61 171.5-19.3 171.68-20.14 171.85-20.97 171.99-21.76 172.13-22.54 172.17-22.95L172.17-22.95 172.35-23.13ZM169.78-35.41L169.78-35.41Q169.74-33.84 169.63-32.31 169.51-30.78 169.51-29.2L169.51-29.2Q169.51-28.84 169.81-28.51 170.1-28.17 170.46-28.17L170.46-28.17Q170.82-28.17 171.25-28.51 171.68-28.84 172.03-29.32 172.39-29.79 172.62-30.29 172.84-30.78 172.84-31.14L172.84-31.14Q172.84-31.59 172.69-32.38 172.53-33.16 172.22-33.91 171.9-34.65 171.45-35.19 171-35.73 170.41-35.73L170.41-35.73Q169.97-35.73 169.78-35.41ZM138.96-25.02L138.96-25.02Q138.96-24.93 138.71-24.84 138.47-24.75 138.15-24.68 137.84-24.61 137.52-24.59 137.21-24.57 137.12-24.57L137.12-24.57Q136.8-24.57 136.8-24.88L136.8-24.88Q136.8-25.11 137.09-25.2 137.38-25.29 137.77-25.29 138.15-25.29 138.49-25.2 138.82-25.11 138.96-25.02Z" transform="translate(-0.9000000357627869, 38.43000030517578)"></path></g> <!----> <!----> <!----> <!----> <!----> <!----> <!----></g></g> <g data-gra="path-slogan" fill-rule="" class="tp-slogan iconsvg-slogansvg" fill="#f19533" transform="translate(5,48.70000076293945)"><rect x="0" height="1" y="3.9750003814697266" width="14.055000305175781"></rect> <rect height="1" y="3.9750003814697266" width="14.055000305175781" x="153.6050033569336"></rect> <g transform="translate(17.05500030517578,0)"><g transform="scale(1)"><path d="M5.02-3.70L2.20-3.70L2.20 0L1.03 0L1.03-8.58L5.02-8.58Q7.88-8.58 7.88-6.28L7.88-6.28Q7.88-4.88 6.66-4.22L6.66-4.22Q7.69-3.94 7.69-2.58L7.69-2.58L7.78-1.03Q7.73-0.38 8.20-0.19L8.20-0.19L8.20 0L6.75 0Q6.61-0.61 6.56-2.16L6.56-2.16Q6.61-3.70 5.02-3.70L5.02-3.70ZM5.11-7.64L2.20-7.64L2.20-4.69L4.92-4.69Q6.66-4.69 6.66-6.19L6.66-6.19Q6.66-7.64 5.11-7.64L5.11-7.64ZM16.31-4.27L16.31-4.27Q16.13-7.64 13.31-7.83L13.31-7.83Q10.45-7.69 10.31-4.27L10.31-4.27Q10.45-0.94 13.31-0.80L13.31-0.80Q16.13-0.98 16.31-4.27ZM17.48-4.27L17.48-4.27Q17.20 0 13.31 0.14L13.31 0.14Q9.38 0 9.09-4.27L9.09-4.27Q9.33-8.72 13.31-8.81L13.31-8.81Q17.20-8.67 17.48-4.27ZM22.08-7.64L20.02-7.64L20.02-4.97L22.08-4.97Q23.91-4.92 23.86-6.38L23.86-6.38Q23.86-7.64 22.08-7.64L22.08-7.64ZM22.55 0L18.84 0L18.84-8.58L22.64-8.58Q24.94-8.48 25.03-6.42L25.03-6.42Q25.03-5.16 23.91-4.64L23.91-4.64Q25.50-4.08 25.50-2.53L25.50-2.53Q25.36-0.09 22.55 0L22.55 0ZM22.27-3.98L20.02-3.98L20.02-0.98L22.50-0.98Q24.28-1.03 24.33-2.53L24.33-2.53Q24.33-3.98 22.27-3.98L22.27-3.98ZM32.34-7.59L29.44-7.59L29.44-8.58L36.38-8.58L36.38-7.59L33.47-7.59L33.47 0L32.34 0L32.34-7.59ZM38.58-5.06L43.08-5.06L43.08-8.58L44.25-8.58L44.25 0L43.08 0L43.08-3.98L38.58-3.98L38.58 0L37.41 0L37.41-8.58L38.58-8.58L38.58-5.06ZM47.34-1.03L52.50-1.03L52.50 0L46.17 0L46.17-8.58L52.41-8.58L52.41-7.59L47.34-7.59L47.34-4.92L52.03-4.92L52.03-3.89L47.34-3.89L47.34-1.03ZM65.58-8.58L65.58 0L64.45 0L64.45-5.06Q64.45-5.77 64.45-7.22L64.45-7.22L62.02 0L60.84 0L58.45-7.22L58.41-7.22Q58.41-6.70 58.45-5.67L58.45-5.67Q58.45-5.16 58.45-5.06L58.45-5.06L58.45 0L57.28 0L57.28-8.58L58.97-8.58L61.45-1.31L63.89-8.58L65.58-8.58ZM74.06-4.27L74.06-4.27Q73.88-7.64 71.06-7.83L71.06-7.83Q68.20-7.69 68.06-4.27L68.06-4.27Q68.20-0.94 71.06-0.80L71.06-0.80Q73.88-0.98 74.06-4.27ZM75.23-4.27L75.23-4.27Q74.95 0 71.06 0.14L71.06 0.14Q67.13 0 66.84-4.27L66.84-4.27Q67.08-8.72 71.06-8.81L71.06-8.81Q74.95-8.67 75.23-4.27ZM78-8.58L82.31-1.64L82.31-8.58L83.44-8.58L83.44 0L82.13 0L77.77-6.94L77.72-6.94L77.72 0L76.59 0L76.59-8.58L78-8.58ZM86.53-1.03L91.69-1.03L91.69 0L85.36 0L85.36-8.58L91.59-8.58L91.59-7.59L86.53-7.59L86.53-4.92L91.22-4.92L91.22-3.89L86.53-3.89L86.53-1.03ZM100.13-8.58L96.89-3.47L96.89 0L95.72 0L95.72-3.47L92.48-8.58L93.84-8.58L96.28-4.45L98.77-8.58L100.13-8.58ZM112.73-8.58L112.73 0L111.61 0L111.61-5.06Q111.61-5.77 111.61-7.22L111.61-7.22L109.17 0L108 0L105.61-7.22L105.56-7.22Q105.56-6.70 105.61-5.67L105.61-5.67Q105.61-5.16 105.61-5.06L105.61-5.06L105.61 0L104.44 0L104.44-8.58L106.13-8.58L108.61-1.31L111.05-8.58L112.73-8.58ZM120.09 0L119.25-2.48L115.78-2.48L114.89 0L113.72 0L116.95-8.58L118.27-8.58L121.36 0L120.09 0ZM117.52-7.31L116.16-3.52L118.83-3.52L117.56-7.31L117.52-7.31ZM122.39-8.58L123.56-8.58L123.56-1.03L127.92-1.03L127.92 0L122.39 0L122.39-8.58ZM129.05-8.58L130.22-8.58L130.22-1.03L134.58-1.03L134.58 0L129.05 0L129.05-8.58Z" transform="translate(-1.03125, 8.8125)"></path></g></g></g></g></g><defs v-gra="od"></defs></svg>